<svg width="111" height="20" viewBox="0 0 111 20" fill="none" xmlns="http://www.w3.org/2000/svg">
<path d="M106.347 8.31993H101.387H96.4267C95.412 8.31993 94.5864 7.51778 94.5864 6.53179V4.86688C94.5864 3.88126 95.412 3.07881 96.4267 3.07881H108.89C109.667 3.07881 110.297 2.46723 110.297 1.71249C110.297 0.957767 109.667 0.346176 108.89 0.346176H96.4267C93.8612 0.346176 91.7739 2.37425 91.7739 4.86688V6.53179C91.7739 9.02471 93.8612 11.0528 96.4267 11.0528H101.387H106.347C107.362 11.0528 108.188 11.855 108.188 12.8405V14.5056C108.188 15.4915 107.362 16.2936 106.347 16.2936H93.1801C92.4033 16.2936 91.7739 16.9054 91.7739 17.6598C91.7739 18.4147 92.4033 19.0265 93.1801 19.0265H106.347C108.913 19.0265 111 16.9984 111 14.5056V12.8405C111 10.3479 108.913 8.31993 106.347 8.31993Z" fill="#EEEEF0"/>
<path d="M85.3043 14.5055C85.3043 15.4915 84.4787 16.2936 83.4639 16.2936H73.5434C72.5287 16.2936 71.7031 15.4915 71.7031 14.5055V4.86694C71.7031 3.88096 72.5287 3.07887 73.5434 3.07887H83.4639C84.4787 3.07887 85.3043 3.88096 85.3043 4.86694V14.5055ZM83.4639 0.346237H73.5434C70.9779 0.346237 68.8906 2.3743 68.8906 4.86694V14.5055C68.8906 16.9985 70.9779 19.0262 73.5434 19.0262H83.4639C86.0297 19.0262 88.1171 16.9985 88.1171 14.5055V4.86694C88.1171 2.3743 86.0297 0.346237 83.4639 0.346237Z" fill="#EEEEF0"/>
<path d="M62.4215 14.5055C62.4215 15.4915 61.5958 16.2936 60.5811 16.2936H48.8203V11.0525H60.5811C61.5958 11.0525 62.4215 11.8546 62.4215 12.8405V14.5055ZM62.4215 4.86694V6.53184C62.4215 7.51778 61.5958 8.31993 60.5811 8.31993H48.8203V3.07887H60.5811C61.5958 3.07887 62.4215 3.88096 62.4215 4.86694ZM60.5811 0.346237H47.414C47.1713 0.346237 46.9431 0.405883 46.7438 0.51115C46.664 0.553254 46.5889 0.602378 46.5195 0.658161C46.4501 0.713945 46.3863 0.775701 46.3288 0.84343C46.1281 1.07956 46.0078 1.38237 46.0078 1.71255V17.66C46.0078 18.1789 46.3054 18.6302 46.7438 18.8617C46.9431 18.9666 47.1713 19.0262 47.414 19.0262H60.5811C63.147 19.0262 65.2343 16.9985 65.2343 14.5055V12.8405C65.2343 11.6146 64.7283 10.5014 63.9096 9.68629C64.7283 8.87122 65.2343 7.75784 65.2343 6.53184V4.86694C65.2343 2.3743 63.147 0.346237 60.5811 0.346237Z" fill="#EEEEF0"/>
<path d="M40.9446 0.346069C40.1679 0.346069 39.5385 0.958004 39.5385 1.71238V14.5054C39.5385 15.4913 38.7129 16.2934 37.6982 16.2934H27.7777C26.7629 16.2934 25.9373 15.4913 25.9373 14.5054V1.71238C25.9373 0.958004 25.3079 0.346069 24.531 0.346069C23.7542 0.346069 23.1245 0.958004 23.1245 1.71238V14.5054C23.1245 16.9984 25.2118 19.0265 27.7777 19.0265H37.6982C40.2635 19.0265 42.351 16.9984 42.351 14.5054V1.71238C42.351 0.958004 41.7216 0.346069 40.9446 0.346069Z" fill="#EEEEF0"/>
<path d="M4.8945 3.07897H18.0617C18.8384 3.07897 19.4678 2.46738 19.4678 1.71265C19.4678 0.957912 18.8384 0.345978 18.0617 0.345978H4.8945C2.32911 0.345978 0.241699 2.37405 0.241699 4.86704V14.5055C0.241699 16.9982 2.32911 19.0263 4.8945 19.0263H18.0617C18.8384 19.0263 19.4678 18.4148 19.4678 17.66C19.4678 16.9053 18.8384 16.2938 18.0617 16.2938H4.8945C3.87976 16.2938 3.05416 15.4916 3.05416 14.5055V4.86704C3.05416 3.88106 3.87976 3.07897 4.8945 3.07897Z" fill="#EEEEF0"/>
</svg>
