<svg width="69" height="17" viewBox="0 0 69 17" fill="none" xmlns="http://www.w3.org/2000/svg">
<path d="M0.121626 1.45455H3.91424L7.91992 11.2273H8.09038L12.0961 1.45455H15.8887V16H12.9057V6.53267H12.785L9.02077 15.929H6.98952L3.22532 6.49716H3.10458V16H0.121626V1.45455ZM23.2946 16.2131C22.1913 16.2131 21.2373 15.9787 20.4324 15.5099C19.6322 15.0365 19.0143 14.3783 18.5787 13.5355C18.1431 12.688 17.9252 11.7055 17.9252 10.5881C17.9252 9.46117 18.1431 8.47633 18.5787 7.63352C19.0143 6.78598 19.6322 6.12784 20.4324 5.65909C21.2373 5.18561 22.1913 4.94886 23.2946 4.94886C24.3978 4.94886 25.3495 5.18561 26.1497 5.65909C26.9546 6.12784 27.5749 6.78598 28.0105 7.63352C28.4461 8.47633 28.6639 9.46117 28.6639 10.5881C28.6639 11.7055 28.4461 12.688 28.0105 13.5355C27.5749 14.3783 26.9546 15.0365 26.1497 15.5099C25.3495 15.9787 24.3978 16.2131 23.2946 16.2131ZM23.3088 13.8693C23.8107 13.8693 24.2297 13.7273 24.5659 13.4432C24.902 13.1544 25.1554 12.7614 25.3258 12.2642C25.501 11.767 25.5886 11.2012 25.5886 10.5668C25.5886 9.93229 25.501 9.36648 25.3258 8.86932C25.1554 8.37216 24.902 7.97917 24.5659 7.69034C24.2297 7.40151 23.8107 7.2571 23.3088 7.2571C22.8021 7.2571 22.376 7.40151 22.0304 7.69034C21.6895 7.97917 21.4314 8.37216 21.2562 8.86932C21.0858 9.36648 21.0005 9.93229 21.0005 10.5668C21.0005 11.2012 21.0858 11.767 21.2562 12.2642C21.4314 12.7614 21.6895 13.1544 22.0304 13.4432C22.376 13.7273 22.8021 13.8693 23.3088 13.8693ZM40.4501 5.09091L36.6362 16H33.2271L29.4132 5.09091H32.6092L34.8748 12.8963H34.9885L37.247 5.09091H40.4501ZM41.9984 16V5.09091H45.024V16H41.9984ZM43.5183 3.68466C43.0685 3.68466 42.6826 3.53551 42.3606 3.23722C42.0434 2.93419 41.8848 2.57197 41.8848 2.15057C41.8848 1.7339 42.0434 1.37642 42.3606 1.07812C42.6826 0.775094 43.0685 0.623579 43.5183 0.623579C43.9681 0.623579 44.3516 0.775094 44.6689 1.07812C44.9908 1.37642 45.1518 1.7339 45.1518 2.15057C45.1518 2.57197 44.9908 2.93419 44.6689 3.23722C44.3516 3.53551 43.9681 3.68466 43.5183 3.68466ZM52.4192 16.2131C51.2971 16.2131 50.3311 15.9858 49.5215 15.5312C48.7166 15.072 48.0963 14.4233 47.6607 13.5852C47.2251 12.7424 47.0073 11.7457 47.0073 10.5952C47.0073 9.47301 47.2251 8.48816 47.6607 7.64062C48.0963 6.79309 48.7095 6.13258 49.5002 5.65909C50.2956 5.18561 51.2284 4.94886 52.2985 4.94886C53.0182 4.94886 53.6882 5.06487 54.3084 5.29688C54.9334 5.52415 55.4779 5.86742 55.9419 6.3267C56.4107 6.78598 56.7753 7.36364 57.0357 8.05966C57.2961 8.75095 57.4263 9.56061 57.4263 10.4886V11.3196H48.2147V9.4446H54.5783C54.5783 9.009 54.4836 8.62311 54.2942 8.28693C54.1048 7.95076 53.842 7.68797 53.5059 7.49858C53.1744 7.30445 52.7885 7.20739 52.3482 7.20739C51.8889 7.20739 51.4817 7.31392 51.1266 7.52699C50.7762 7.73532 50.5016 8.01705 50.3027 8.37216C50.1039 8.72254 50.0021 9.11316 49.9973 9.54403V11.3267C49.9973 11.8665 50.0968 12.3329 50.2956 12.7259C50.4992 13.1188 50.7857 13.4219 51.155 13.6349C51.5243 13.848 51.9623 13.9545 52.4689 13.9545C52.8051 13.9545 53.1129 13.9072 53.3922 13.8125C53.6716 13.7178 53.9107 13.5758 54.1096 13.3864C54.3084 13.197 54.4599 12.965 54.5641 12.6903L57.3624 12.875C57.2203 13.5473 56.9292 14.1345 56.4888 14.6364C56.0532 15.1335 55.4898 15.5218 54.7985 15.8011C54.1119 16.0758 53.3188 16.2131 52.4192 16.2131ZM68.4775 8.2017L65.7076 8.37216C65.6602 8.13542 65.5584 7.92235 65.4022 7.73295C65.2459 7.53883 65.04 7.38494 64.7843 7.27131C64.5333 7.15294 64.2327 7.09375 63.8823 7.09375C63.4135 7.09375 63.0182 7.19318 62.6962 7.39205C62.3742 7.58617 62.2132 7.84659 62.2132 8.1733C62.2132 8.43371 62.3174 8.65388 62.5257 8.83381C62.7341 9.01373 63.0916 9.15814 63.5982 9.26705L65.5726 9.66477C66.6332 9.88258 67.4239 10.233 67.9448 10.7159C68.4656 11.1989 68.726 11.8333 68.726 12.6193C68.726 13.3343 68.5153 13.9616 68.0939 14.5014C67.6773 15.0412 67.1043 15.4626 66.3752 15.7656C65.6507 16.0639 64.815 16.2131 63.8681 16.2131C62.4239 16.2131 61.2734 15.9124 60.4164 15.3111C59.5641 14.705 59.0646 13.8812 58.9178 12.8395L61.8936 12.6832C61.9836 13.1236 62.2014 13.4598 62.5471 13.6918C62.8927 13.919 63.3354 14.0327 63.8752 14.0327C64.4055 14.0327 64.8316 13.9309 65.1536 13.7273C65.4803 13.5189 65.646 13.2514 65.6507 12.9247C65.646 12.6501 65.53 12.4252 65.3027 12.25C65.0755 12.0701 64.7251 11.9328 64.2516 11.8381L62.3624 11.4616C61.2971 11.2486 60.504 10.8793 59.9831 10.3537C59.467 9.82812 59.209 9.15814 59.209 8.34375C59.209 7.64299 59.3984 7.0393 59.7772 6.53267C60.1607 6.02604 60.6981 5.63542 61.3894 5.3608C62.0854 5.08617 62.8998 4.94886 63.8326 4.94886C65.2104 4.94886 66.2947 5.24006 67.0854 5.82244C67.8809 6.40483 68.3449 7.19792 68.4775 8.2017Z" fill="#EEEEF0"/>
</svg>
